<svg xmlns="http://www.w3.org/2000/svg" xmlns:xlink="http://www.w3.org/1999/xlink" version="1.1" id="Layer_1"  viewBox="0 0 502 502" xml:space="preserve" width="32" height="32">
<g>
	<g>
		<polygon style="fill:#CCCCCC;" points="241.466,409.537 168.146,454.011 164.367,490.147 245.244,465.289   "/>
		<polygon style="fill:#CCCCCC;" points="258.095,409.537 332.927,454.011 336.706,490.147 255.828,465.289   "/>
		<path style="fill:#CCCCCC;" d="M175.603,254.993h57.502v-95.445L53.732,237.86c-13.378,5.841-23.64,19.11-27.598,35.687    L20.7,296.305L175.603,254.993z"/>
		<path style="fill:#CCCCCC;" d="M326.397,254.993h-57.502v-95.445l179.372,78.312c13.378,5.841,23.64,19.11,27.598,35.687    l5.434,22.759L326.397,254.993z"/>
		<path style="fill:#CCCCCC;" d="M251,73c-17.365,0-32.906,11.181-43.359,28.801l4.907,266.147    c-0.084,20.633,4.281,40.989,12.286,60.012l19.216,45.669L250.537,492l6.486-18.372l19.411-45.458    c8.181-19.159,12.661-39.694,12.695-60.52l5.263-265.793C283.938,84.205,268.383,73,251,73z"/>
		<path style="fill:#CCCCCC;" d="M251,39c17.722,0,33.554,11.636,44.008,29.885C294.911,36.413,277.453,10,255.986,10h-9.972    c-21.44,0-38.88,26.345-38.95,58.761C217.519,50.583,233.319,39,251,39z"/>
		<path style="fill:#50A5DC;" d="M295.008,68.885C284.554,50.636,268.722,39,251,39c-17.681,0-33.481,11.583-43.936,29.761    c-0.001,0.594-0.01,1.185,0.001,1.783l0.576,31.258C218.094,84.181,233.635,73,251,73c17.383,0,32.938,11.205,43.391,28.857    l0.62-31.313C295.02,69.988,295.01,69.438,295.008,68.885z"/>
	</g>
	<g>
		<path d="M491.026,293.983l-5.435-22.759c-4.67-19.559-17.128-35.458-33.323-42.529l-149.097-65.095l1.219-61.545v0l0.621-31.371    c0.006-0.442,0.004-0.88,0.001-1.318l-0.003-0.499c0-0.002,0-0.003,0-0.005c0-0.003,0-0.005,0-0.008    C304.893,30.245,283.359,0,255.986,0h-9.973c-27.362,0-48.861,30.186-48.949,68.724c0,0.001,0,0.003,0,0.004l-0.002,0.42    c-0.003,0.518-0.005,1.037,0.004,1.58l0.576,31.257v0v0l1.136,61.636L49.731,228.695c-16.195,7.071-28.653,22.969-33.323,42.528    l-5.435,22.759c-0.818,3.426,0.227,7.029,2.749,9.486c1.892,1.842,4.404,2.837,6.979,2.837c0.858,0,1.725-0.111,2.576-0.338    l153.636-40.975h23.735l1.9,103.029c-0.054,16.423,2.49,32.789,7.563,48.837l-47.151,28.602c-2.673,1.622-4.434,4.4-4.759,7.51    l-3.779,36.136c-0.35,3.339,1,6.63,3.592,8.763c1.813,1.492,4.066,2.277,6.354,2.277c0.982,0,1.973-0.145,2.937-0.441    l67.971-20.891l5.832,16.515c1.412,3.998,5.191,6.67,9.431,6.67s8.018-2.674,9.429-6.671l5.83-16.514l67.972,20.891    c0.964,0.296,1.953,0.441,2.937,0.441c2.288,0,4.541-0.786,6.354-2.277c2.592-2.133,3.941-5.424,3.592-8.763l-3.779-36.136    c-0.328-3.141-2.121-5.943-4.836-7.556l-46.943-27.9c5.293-16.294,7.997-32.969,8.035-49.755l2.035-102.768h23.923l153.636,40.975    c0.852,0.228,1.718,0.338,2.576,0.338c2.574,0,5.088-0.995,6.979-2.837C490.8,301.012,491.845,297.409,491.026,293.983z     M217.156,75.434l-0.072-3.941C226.034,57.161,238.284,49,251,49c12.755,0,25.032,8.202,33.988,22.606l-0.076,3.882    C274.792,67.386,263.143,63,251,63C238.886,63,227.262,67.367,217.156,75.434z M246.014,20h9.973    c8.321,0,15.975,6.332,21.331,16.246l0.002,0.008C269.143,31.517,260.227,29,251,29c-9.219,0-18.129,2.515-26.303,7.247    l0.002-0.008C230.042,26.33,237.691,20,246.014,20z M175.603,244.993c-0.87,0-1.736,0.113-2.577,0.338L34.32,282.324l1.541-6.455    c3.221-13.488,11.397-24.271,21.872-28.844l141.445-61.754l1.101,59.722H175.603z M177.576,459.987l39.741-24.107l10.257,24.378    l-51.689,15.886L177.576,459.987z M234.051,424.082c-7.709-18.321-11.579-37.193-11.503-56.093c0-0.075,0-0.149-0.002-0.224    l-4.852-263.185C226.588,90.833,238.608,83,251,83c12.408,0,24.437,7.85,33.335,21.624l-5.204,262.829    c-0.001,0.06-0.002,0.121-0.002,0.181c-0.032,19.159-4.033,38.205-11.892,56.61l-16.682,39.065L234.051,424.082z M325.188,476.145    l-51.595-15.857l10.186-23.854l39.725,23.61L325.188,476.145z M328.975,245.331c-0.841-0.225-1.707-0.338-2.577-0.338H301.56    l1.183-59.757l141.524,61.788c10.475,4.574,18.651,15.356,21.872,28.845l1.541,6.455L328.975,245.331z"/>
		<path d="M63,307c-5.522,0-10,4.477-10,10v67c0,5.523,4.478,10,10,10s10-4.477,10-10v-67C73,311.477,68.522,307,63,307z"/>
		<path d="M122,292c-5.522,0-10,4.477-10,10v40c0,5.523,4.478,10,10,10s10-4.477,10-10v-40C132,296.477,127.522,292,122,292z"/>
		<path d="M122,364c-5.522,0-10,4.477-10,10v8c0,5.523,4.478,10,10,10s10-4.477,10-10v-8C132,368.477,127.522,364,122,364z"/>
		<path d="M439,307c-5.522,0-10,4.477-10,10v67c0,5.523,4.478,10,10,10s10-4.477,10-10v-67C449,311.477,444.522,307,439,307z"/>
		<path d="M380,292c-5.522,0-10,4.477-10,10v40c0,5.523,4.478,10,10,10s10-4.477,10-10v-40C390,296.477,385.522,292,380,292z"/>
		<path d="M380,364c-5.522,0-10,4.477-10,10v8c0,5.523,4.478,10,10,10s10-4.477,10-10v-8C390,368.477,385.522,364,380,364z"/>
	</g>
</g>















</svg>